<svg width="67" height="95" viewBox="0 0 67 95" fill="none" xmlns="http://www.w3.org/2000/svg">
<path d="M65.7273 8.80818C62.8489 7.31485 51.9445 0.954346 33.5121 0.954346C15.0798 0.954346 4.14765 7.31485 1.26932 8.80818C0.798823 9.05707 0.494385 9.49954 0.494385 9.99732V29.1894V60.6877C0.494385 60.6877 1.51841 68.8181 12.8657 80.267C19.3696 86.8211 24.8495 91.0246 28.5027 93.4858C31.5194 95.5046 35.4771 95.5046 38.4939 93.4858C42.1748 90.9969 47.627 86.8211 54.1309 80.267C65.4782 68.8458 66.5022 60.6877 66.5022 60.6877V29.1894V9.99732C66.5022 9.49954 66.2254 9.05707 65.7273 8.80818ZM64.3988 30.0191V60.1347C64.3988 60.1347 63.4301 67.9055 52.8301 78.829C46.7414 85.0789 41.6213 89.0888 38.1894 91.467C35.3664 93.4028 31.6578 93.4028 28.8348 91.467C25.403 89.0888 20.2829 85.0789 14.1941 78.829C3.56645 67.9055 2.59778 60.1347 2.59778 60.1347V30.0191V11.6842C2.59778 11.2141 2.87454 10.7716 3.31736 10.5504C6.00195 9.14003 16.2422 3.05608 33.4845 3.05608C50.7544 3.05608 60.9669 9.14003 63.6515 10.5504C64.0944 10.7993 64.3711 11.2141 64.3711 11.6842V30.0191H64.3988Z" fill="white"/>
<path d="M26.7867 29.1064H28.3643V29.8808C28.3089 29.8531 28.2536 29.7978 28.1982 29.7701C28.1429 29.7425 28.0875 29.7148 28.0045 29.7148H27.4786V30.1297H27.8384C27.8938 30.1297 27.9768 30.102 28.0045 30.0743C28.0598 30.0467 28.1152 30.019 28.1706 29.9637V30.8763C28.1152 30.8487 28.0598 30.7934 28.0045 30.7657C27.9491 30.7381 27.8938 30.7104 27.8108 30.7104H27.451V31.1252H27.9768C28.0598 31.1252 28.1152 31.0976 28.1706 31.0699C28.2259 31.0423 28.2813 30.9869 28.3366 30.9593V31.7336H26.7867V29.1064Z" fill="white"/>
<path d="M29.6374 30.9039L28.6134 30.4614V29.3829C28.6134 29.3276 28.6411 29.2723 28.6688 29.217C28.7241 29.1617 28.7518 29.134 28.8348 29.134H30.0802C30.1356 29.134 30.191 29.1617 30.2463 29.217C30.3017 29.2723 30.3017 29.3276 30.3017 29.3829V30.2679L29.6374 29.9637V29.8254C29.6374 29.7701 29.6097 29.7424 29.5821 29.7424H29.333C29.3053 29.7424 29.2776 29.7701 29.2776 29.7977V30.019L30.3017 30.4614V31.5123C30.3017 31.5676 30.274 31.6229 30.2463 31.6782C30.191 31.7335 30.1633 31.7612 30.0802 31.7612H28.8348C28.7795 31.7612 28.7241 31.7335 28.6688 31.6782C28.6134 31.6229 28.6134 31.5676 28.6134 31.5123V30.655L29.2776 30.9592V31.0975C29.2776 31.1528 29.3053 31.1805 29.333 31.1805H29.5821C29.6097 31.1805 29.6374 31.1528 29.6374 31.0975V30.9039Z" fill="white"/>
<path d="M31.2703 31.0976V31.7613H30.6061V29.1064H32.0729C32.1283 29.1064 32.1836 29.1341 32.239 29.1894C32.2943 29.2447 32.2943 29.3 32.2943 29.3553V30.4615L31.2703 31.0976ZM31.6024 29.7978C31.6024 29.7425 31.5747 29.7148 31.5471 29.7148H31.2426V30.4339L31.5747 30.2403V29.7978H31.6024Z" fill="white"/>
<path d="M34.2317 31.5124C34.2317 31.5677 34.204 31.623 34.1763 31.6783C34.121 31.7336 34.0933 31.7613 34.0103 31.7613H32.7649C32.7095 31.7613 32.6542 31.7336 32.5988 31.6783C32.5435 31.623 32.5435 31.5677 32.5435 31.5124V29.3553C32.5435 29.3 32.5711 29.2447 32.5988 29.1894C32.6542 29.1341 32.6818 29.1064 32.7649 29.1064H34.0103C34.0656 29.1064 34.121 29.1341 34.1763 29.1894C34.2317 29.2447 34.2317 29.3 34.2317 29.3553V31.5124ZM33.5675 29.7978C33.5675 29.7425 33.5398 29.7148 33.5121 29.7148H33.263C33.2354 29.7148 33.2077 29.7425 33.2077 29.7978V31.0699C33.2077 31.1252 33.2354 31.1529 33.263 31.1529H33.5121C33.5398 31.1529 33.5675 31.1252 33.5675 31.0699V29.7978Z" fill="white"/>
<path d="M35.5325 31.1252L35.3664 31.0145L35.2004 31.1252V31.7889H34.5361V29.134H36.003C36.0583 29.134 36.1137 29.1617 36.169 29.217C36.2244 29.2723 36.2244 29.3276 36.2244 29.3829V30.4891L35.9476 30.6827L36.2244 30.8763V31.8165H35.5602V31.1252H35.5325ZM35.5325 29.7977C35.5325 29.7424 35.5048 29.7148 35.4771 29.7148H35.1727V30.4338L35.5048 30.2402V29.7977H35.5325Z" fill="white"/>
<path d="M36.9717 29.7148H36.8056C36.7226 29.7148 36.6672 29.7425 36.6119 29.7701C36.5565 29.7978 36.5012 29.8531 36.4458 29.8808V29.1064H38.1341V29.8808C38.0787 29.8531 38.0233 29.7978 37.968 29.7701C37.9126 29.7425 37.8573 29.7148 37.7743 29.7148H37.6359V31.7613H36.944V29.7148H36.9717Z" fill="white"/>
<path d="M39.4625 30.9039L38.4385 30.4614V29.3829C38.4385 29.3276 38.4662 29.2723 38.4938 29.217C38.5492 29.1617 38.5769 29.134 38.6599 29.134H39.9053C39.9607 29.134 40.016 29.1617 40.0714 29.217C40.1267 29.2723 40.1267 29.3276 40.1267 29.3829V30.2679L39.4625 29.9637V29.8254C39.4625 29.7701 39.4348 29.7424 39.4071 29.7424H39.1581C39.1304 29.7424 39.1027 29.7701 39.1027 29.7977V30.019L40.1267 30.4614V31.5123C40.1267 31.5676 40.099 31.6229 40.0714 31.6782C40.016 31.7335 39.9883 31.7612 39.9053 31.7612H38.6599C38.6045 31.7612 38.5492 31.7335 38.4938 31.6782C38.4385 31.6229 38.4385 31.5676 38.4385 31.5123V30.655L39.1027 30.9592V31.0975C39.1027 31.1528 39.1304 31.1805 39.1581 31.1805H39.4071C39.4348 31.1805 39.4625 31.1528 39.4625 31.0975V30.9039Z" fill="white"/>
<path d="M25.5967 29.6873V31.3189L22.3309 30.4892L25.5967 29.6873Z" fill="white"/>
<path d="M41.4275 29.6873V31.3189L44.6656 30.4892L41.4275 29.6873Z" fill="white"/>
<path d="M36.4458 49.3219L44.6933 45.0908V33.1165H22.3032V63.4533C26.7591 71.556 33.7889 72.1367 33.8165 72.1367C39.6285 71.2518 44.6933 63.4533 44.6933 63.4533V51.1471L37.027 55.4059V61.4069C35.6432 64.034 33.7612 64.1723 33.8165 64.1723C30.9382 63.8128 30.6061 61.4069 30.6061 61.4069V40.7214H36.4181V41.1639L36.4458 49.3219Z" fill="white"/>
<path d="M14.5262 25.8984C15.1074 25.6772 15.4118 25.5665 16.0207 25.373C16.2144 25.3177 16.2975 25.0964 16.2975 24.7646C16.2975 24.4604 16.2975 24.2944 16.2975 23.9902C17.6536 22.967 19.0651 21.9991 20.5043 21.0589C20.5043 22.7735 20.5043 24.488 20.5043 26.2026C20.5043 26.5621 20.3659 26.9493 20.0891 27.3364C19.8123 27.7236 19.4802 27.9725 19.0928 28.0831C16.4635 28.8298 13.9727 29.7147 11.4818 30.8762C11.0943 31.0698 10.7899 31.0698 10.5131 30.8762C10.264 30.6826 10.1257 30.4061 10.1257 30.0466C10.098 25.7601 10.098 21.4737 10.0703 17.1873C10.0703 16.8278 10.2087 16.413 10.4578 15.9428C10.7069 15.4727 11.039 15.1409 11.4264 14.9473C13.9173 13.8134 16.4082 12.9562 19.0651 12.2648C19.4526 12.1542 19.7847 12.2648 20.0614 12.5137C20.3382 12.7902 20.4766 13.0944 20.4766 13.4539C20.4766 14.2559 20.4766 14.6707 20.4766 15.5004C19.0374 16.413 17.6259 17.3532 16.2698 18.3764C16.2698 17.8786 16.2698 17.6297 16.2698 17.1596C16.2698 16.8001 16.1868 16.6618 15.993 16.7172C15.3841 16.9107 15.1074 17.0214 14.4985 17.2426C14.3048 17.3255 14.1941 17.5191 14.1941 17.8786C14.1941 20.4228 14.2217 22.9394 14.2217 25.4836C14.2217 25.8431 14.3048 25.9814 14.5262 25.8984Z" fill="white"/>
<path d="M28.6412 22.0268C27.7832 22.6076 27.3404 22.9118 26.4824 23.5478C26.4824 24.737 26.4824 25.3454 26.4824 26.5345C25.0432 26.7557 23.6041 27.0323 22.1926 27.3365C22.1926 22.5799 22.1649 17.851 22.1649 13.0945C22.1649 12.735 22.3033 12.3478 22.5801 11.9883C22.8568 11.6012 23.1889 11.3799 23.6041 11.297C26.7315 10.7162 29.8036 10.3567 32.9863 10.2461C32.9863 15.5004 32.9863 20.7547 32.9863 26.0091C31.5472 26.0091 30.0803 26.092 28.6688 26.258C28.6412 24.8476 28.6412 23.4372 28.6412 22.0268ZM28.6412 14.1177C27.8939 14.2007 27.5341 14.256 26.7868 14.3666C26.5654 14.3942 26.4824 14.5878 26.4824 14.9197C26.4824 16.4683 26.4824 17.9893 26.4824 19.538C27.3404 18.9296 27.7832 18.6254 28.6412 18.0446C28.6412 16.7172 28.6412 15.4175 28.6412 14.1177Z" fill="white"/>
<path d="M41.1784 21.4184C39.075 20.2292 36.9162 19.0954 34.7021 18.0999C34.7021 15.9981 34.7021 13.8964 34.7021 11.767C34.7021 11.4075 34.8405 11.0756 35.1173 10.7438C35.3941 10.4396 35.7262 10.2737 36.1413 10.3013C38.8259 10.5226 41.4275 10.9097 44.0844 11.4075C44.4719 11.4905 44.8317 11.7117 45.0807 12.0989C45.3575 12.486 45.4959 12.8455 45.4959 13.205C45.4959 14.9473 45.4959 16.6895 45.4959 18.4317C44.0844 17.5468 42.6452 16.7171 41.2061 15.8598C41.2061 15.5003 41.2061 15.3344 41.2061 14.9749C41.2061 14.6431 41.123 14.4495 40.9293 14.4218C40.3204 14.3112 39.9883 14.2836 39.3794 14.2006C39.1857 14.1729 39.075 14.3112 39.075 14.5601C39.075 15.1132 39.075 15.3897 39.075 15.9428C41.2614 17.1596 43.3925 18.4317 45.5236 19.7315C45.5236 21.8055 45.5236 23.852 45.4959 25.926C45.4959 26.2855 45.3575 26.5897 45.0807 26.8663C44.804 27.1428 44.4719 27.2258 44.0844 27.1428C41.4551 26.645 38.8536 26.2302 36.169 26.0366C35.7538 26.009 35.4217 25.8431 35.145 25.5112C34.8682 25.1794 34.7298 24.8199 34.7298 24.4604C34.7298 22.7458 34.7298 21.0589 34.7298 19.3443C36.1967 20.008 37.6358 20.6717 39.0473 21.4184C39.0473 21.7226 39.0473 21.8885 39.0473 22.1927C39.0473 22.5245 39.158 22.7181 39.3518 22.7458C39.9606 22.8287 40.2927 22.8841 40.9016 22.967C41.0954 22.9947 41.1784 22.8564 41.2061 22.4969C41.1784 22.0821 41.1784 21.8608 41.1784 21.4184Z" fill="white"/>
<path d="M47.1841 12.0713C50.616 12.9286 53.7711 14.0071 56.8985 15.6387C56.8985 17.1597 56.8985 18.7083 56.8708 20.2293C56.4834 19.7869 56.1236 19.372 55.8468 19.0125C55.5424 18.653 55.1549 18.3488 54.6567 18.1276C53.3559 17.5192 52.6917 17.2703 51.3632 16.8278C51.3632 17.8234 51.3632 18.3488 51.3632 19.3444C52.2766 19.6486 52.7194 19.8145 53.605 20.2017C53.9925 20.3676 54.3523 20.4506 54.6844 20.4229C54.9888 20.3952 55.3486 20.3399 55.7084 20.2846C55.7084 22.0822 55.6807 23.8797 55.6807 25.7049C55.3486 25.2901 55.0165 24.9306 54.7121 24.6264C54.4076 24.3222 54.0202 24.0733 53.5773 23.852C52.6917 23.4649 52.2212 23.299 51.3356 22.9948C51.3356 23.9903 51.3356 24.4881 51.3356 25.4836C52.664 25.9538 53.3283 26.2027 54.629 26.8111C55.0995 27.0323 55.487 27.1153 55.8191 27.0599C56.1236 27.0046 56.4834 26.977 56.8431 26.9493C56.8431 28.4703 56.8431 30.019 56.8155 31.5399C53.6881 29.8807 50.533 28.7469 47.1288 27.8619C47.1565 22.6076 47.1841 17.3533 47.1841 12.0713Z" fill="white"/>
<path d="M29.9696 73.7407L29.1116 73.077C29.1116 73.077 29.8589 82.8666 29.8312 82.8666C12.0631 68.9842 11.1221 59.9965 11.0114 59.9135C17.1001 69.9797 28.0323 77.9718 28.0323 77.9718C28.0323 77.9718 27.8662 72.275 27.8662 72.2197C23.2443 69.5372 20.1999 64.1999 20.1999 64.1999V33.1165H9.62756V58.199C11.1774 70.9476 30.8276 85.715 30.8276 85.715L29.9696 73.7407Z" fill="white"/>
<path d="M37.027 73.7407L37.885 73.077C37.885 73.077 37.1377 82.8666 37.1654 82.8666C54.9335 68.9842 55.8745 59.9965 55.9852 59.9135C49.8964 69.9797 38.9643 77.9718 38.9643 77.9718C38.9643 77.9718 39.1304 72.275 39.1304 72.2197C43.7523 69.5372 46.7967 64.1999 46.7967 64.1999V33.1165H57.3413V58.199C55.7915 70.9476 36.1414 85.715 36.1414 85.715L37.027 73.7407Z" fill="white"/>
</svg>
