<svg width="19" height="13" viewBox="0 0 19 13" fill="none" xmlns="http://www.w3.org/2000/svg">
<path id="Vector" d="M16.3668 1.44164C14.7227 0.216948 12.1219 0.00934817 12.0105 0.00188027C11.8379 -0.0115613 11.6733 0.0780502 11.6023 0.225909C11.5959 0.23487 11.5394 0.355845 11.4765 0.544029C12.5639 0.71429 13.8999 1.05631 15.1084 1.75079C15.302 1.86132 15.3617 2.09729 15.2423 2.27651C15.1632 2.3945 15.0293 2.45872 14.8905 2.45872C14.8163 2.45872 14.7405 2.43931 14.6727 2.40048C12.5946 1.20715 10.0002 1.14741 9.5 1.14741C8.99983 1.14741 6.40379 1.20715 4.32728 2.40048C4.13366 2.51249 3.87874 2.45723 3.75934 2.27801C3.63833 2.09729 3.69803 1.86281 3.89164 1.75079C5.10012 1.0578 6.43606 0.714291 7.52352 0.545522C7.4606 0.355845 7.40413 0.236364 7.39929 0.225909C7.32668 0.0780502 7.16372 -0.0145482 6.98947 0.00188027C6.87814 0.00934817 4.27726 0.216948 2.61056 1.45806C1.74091 2.20333 0 6.55844 0 10.3236C0 10.3908 0.0193614 10.455 0.0548575 10.5133C1.25527 12.4668 4.53218 12.9776 5.27921 13C5.28244 13 5.28728 13 5.29212 13C5.42442 13 5.54866 12.9418 5.6261 12.8432L6.3812 11.8814C4.34341 11.3945 3.30273 10.5671 3.24304 10.5178C3.07201 10.3789 3.05588 10.1369 3.20754 9.97861C3.35759 9.82029 3.61897 9.80536 3.79 9.94425C3.8142 9.96516 5.73098 11.4706 9.5 11.4706C13.2755 11.4706 15.1923 9.95919 15.2116 9.94425C15.3826 9.80685 15.6424 9.82029 15.7941 9.9801C15.9441 10.1384 15.928 10.3789 15.757 10.5178C15.6973 10.5671 14.6566 11.3945 12.6188 11.8814L13.3739 12.8432C13.4513 12.9418 13.5756 13 13.7079 13C13.7127 13 13.7176 13 13.7208 13C14.4678 12.9776 17.7447 12.4668 18.9451 10.5133C18.9806 10.455 19 10.3908 19 10.3236C19 6.55844 17.2591 2.20333 16.3668 1.44164ZM6.81522 8.79424C6.01656 8.79424 5.36957 8.11021 5.36957 7.26488C5.36957 6.41954 6.01656 5.73551 6.81522 5.73551C7.61388 5.73551 8.26087 6.41954 8.26087 7.26488C8.26087 8.11021 7.61388 8.79424 6.81522 8.79424ZM12.1848 8.79424C11.3861 8.79424 10.7391 8.11021 10.7391 7.26488C10.7391 6.41954 11.3861 5.73551 12.1848 5.73551C12.9834 5.73551 13.6304 6.41954 13.6304 7.26488C13.6304 8.11021 12.9834 8.79424 12.1848 8.79424Z" fill="white"/>
</svg>
