<svg width="8" height="7" viewBox="0 0 8 7" fill="none" xmlns="http://www.w3.org/2000/svg">
<g id="Play" clip-path="url(#clip0_1_40)">
<g id="Layer 2">
<g id="Layer 1">
<path id="Vector" d="M0.500002 3.50281V0.649615C0.490067 0.53576 0.518744 0.421872 0.582433 0.322244C0.646123 0.222616 0.741987 0.141687 0.857993 0.0896146C0.972958 0.0265102 1.10589 -0.00695801 1.24156 -0.00695801C1.37722 -0.00695801 1.51015 0.0265102 1.62512 0.0896146L5.18585 1.94321L7.12603 2.94561C7.23995 3.00185 7.3345 3.0839 7.39976 3.18316C7.46502 3.28242 7.49859 3.39523 7.49696 3.50976C7.49533 3.6243 7.45854 3.73634 7.39047 3.83414C7.32239 3.93194 7.22554 4.01189 7.11005 4.06561L5.12192 5.09321L1.6379 6.90481C1.54515 6.95462 1.4412 6.98626 1.33318 6.99757C1.22516 7.00888 1.11563 6.99958 1.01209 6.97033C0.908556 6.94107 0.81347 6.89254 0.733355 6.82807C0.65324 6.7636 0.589991 6.68471 0.547948 6.59681C0.517809 6.52308 0.501614 6.44552 0.500002 6.36721C0.500002 5.41335 0.500002 4.45855 0.500002 3.50281Z" fill="#F73859"/>
</g>
</g>
</g>
<defs>
<clipPath id="clip0_1_40">
<rect width="7" height="7" fill="white" transform="translate(0.5)"/>
</clipPath>
</defs>
</svg>
