<svg width="20" height="17" viewBox="0 0 20 17" fill="none" xmlns="http://www.w3.org/2000/svg">
<path id="Vector" d="M20 2.01189C19.2627 2.35427 18.4724 2.58416 17.6416 2.6885C18.4896 2.157 19.1411 1.31572 19.4467 0.314664C18.6548 0.805409 17.7741 1.16246 16.8405 1.35485C16.0923 0.520092 15.0261 0 13.8462 0C11.5798 0 9.74203 1.92059 9.74203 4.29117C9.74203 4.62703 9.77944 4.95473 9.84958 5.2694C6.43909 5.09005 3.41672 3.38141 1.39194 0.784214C1.03811 1.42006 0.837035 2.157 0.837035 2.94284C0.837035 4.43138 1.56028 5.74547 2.6623 6.51664C1.98893 6.49381 1.35609 6.2998 0.802743 5.97861C0.802743 5.99655 0.802743 6.01448 0.802743 6.03242C0.802743 8.11278 2.21807 9.84588 4.09321 10.2421C3.75029 10.3399 3.38711 10.3921 3.01302 10.3921C2.74803 10.3921 2.49084 10.366 2.23989 10.3138C2.76362 12.0176 4.2787 13.2615 6.07279 13.2958C4.66994 14.4468 2.90079 15.1316 0.97732 15.1316C0.645312 15.1316 0.319539 15.112 0 15.0713C1.81436 16.2908 3.97163 17 6.28945 17C13.8368 17 17.9643 10.4605 17.9643 4.79006C17.9643 4.6042 17.9596 4.41671 17.9534 4.2341C18.7546 3.62923 19.4498 2.87273 20 2.01189Z" fill="white"/>
</svg>
