<svg width="17" height="13" viewBox="0 0 17 13" fill="none" xmlns="http://www.w3.org/2000/svg">
<path id="Vector" d="M16.5255 2.23438C16.3683 1.34094 15.6195 0.690308 14.7506 0.487183C13.4502 0.203125 11.0437 0 8.43991 0C5.83768 0 3.39261 0.203125 2.09072 0.487183C1.22331 0.690308 0.472993 1.29968 0.315842 2.23438C0.157151 3.25 0 4.67188 0 6.5C0 8.32812 0.157151 9.75 0.354359 10.7656C0.51305 11.6591 1.26183 12.3097 2.12924 12.5128C3.5097 12.7969 5.8762 13 8.47997 13C11.0837 13 13.4502 12.7969 14.8307 12.5128C15.6981 12.3097 16.4469 11.7003 16.6056 10.7656C16.7627 9.75 16.9599 8.28687 17 6.5C16.9199 4.67188 16.7227 3.25 16.5255 2.23438ZM6.31068 9.34375V3.65625L11.1223 6.5L6.31068 9.34375Z" fill="white"/>
</svg>
